<?xml version="1.0" standalone="no"?>
<!DOCTYPE svg PUBLIC "-//W3C//DTD SVG 20010904//EN"
 "http://www.w3.org/TR/2001/REC-SVG-20010904/DTD/svg10.dtd">
<svg version="1.0" xmlns="http://www.w3.org/2000/svg"
 width="1024.000000pt" height="1024.000000pt" viewBox="0 0 1024.000000 1024.000000"
 preserveAspectRatio="xMidYMid meet">
<metadata>
Created by potrace 1.16, written by Peter Selinger 2001-2019
</metadata>
<g transform="translate(0.000000,1024.000000) scale(0.100000,-0.100000)"
fill="#000000" stroke="none">
<path d="M4015 10099 c-231 -30 -417 -71 -559 -125 -141 -54 -760 -359 -846
-418 -63 -43 -237 -181 -288 -230 -117 -110 -302 -346 -487 -621 -241 -356
-332 -538 -409 -811 -20 -71 -40 -142 -45 -159 -23 -72 -53 -248 -81 -475 -17
-135 -44 -308 -60 -385 -71 -336 -95 -573 -95 -920 0 -359 32 -647 105 -960
89 -379 98 -438 81 -503 -7 -23 -17 -45 -24 -49 -6 -4 -88 -8 -182 -9 -144 -1
-181 -5 -244 -24 -127 -38 -180 -68 -267 -155 -72 -70 -88 -94 -137 -195 -98
-201 -180 -485 -196 -675 -5 -55 -7 -203 -6 -330 4 -253 26 -420 86 -659 45
-180 72 -255 146 -401 188 -373 498 -674 958 -929 352 -195 648 -304 1100
-406 50 -11 122 -29 162 -39 128 -35 625 -130 737 -141 82 -8 121 -8 158 1 76
18 82 33 88 229 6 187 18 226 80 268 41 28 50 27 275 -13 549 -97 931 -108
1385 -39 91 14 221 37 290 52 108 22 150 26 315 26 170 1 197 -1 262 -22 48
-15 73 -28 75 -40 5 -20 -4 -65 -28 -152 -11 -39 -18 -101 -18 -155 -1 -106
11 -133 74 -165 47 -24 164 -27 250 -6 66 16 454 146 560 189 41 16 138 51
215 77 77 27 178 63 225 80 47 18 155 57 240 87 85 30 189 68 230 85 41 16
113 46 160 65 281 114 570 282 779 453 126 103 154 129 237 226 201 234 252
309 385 569 126 247 174 401 231 749 25 153 29 421 9 551 -36 239 -165 473
-344 625 -179 152 -410 215 -869 235 -82 4 -148 9 -148 12 0 3 42 49 93 102
205 214 390 556 460 851 31 131 41 219 41 385 0 268 -41 456 -159 740 -112
268 -211 595 -277 910 -20 96 -150 571 -194 709 -111 347 -230 590 -377 771
-66 81 -195 201 -287 266 -98 70 -383 214 -635 319 -161 67 -274 123 -382 188
-56 34 -105 62 -108 62 -3 0 -24 12 -48 27 -90 57 -268 138 -407 183 -247 81
-443 102 -1120 120 -428 12 -1068 11 -1165 -1z m340 -294 c312 -44 408 -112
444 -310 23 -127 -55 -488 -206 -949 -89 -274 -143 -371 -220 -397 -47 -15
-352 -6 -508 15 -205 28 -278 63 -343 164 -84 132 -227 639 -262 931 -21 168
20 303 123 406 43 42 66 55 132 77 190 63 618 95 840 63z m1741 -86 c328 -32
521 -122 592 -278 24 -51 26 -67 26 -181 0 -176 -25 -278 -107 -445 -36 -71
-77 -159 -92 -195 -33 -75 -72 -143 -126 -218 -21 -30 -45 -75 -54 -102 -9
-26 -24 -55 -35 -65 -18 -16 -108 -39 -270 -70 -327 -62 -578 -30 -686 87 -69
74 -123 192 -142 308 -15 91 -20 153 -37 415 -19 295 -10 369 58 498 37 71
112 141 192 178 137 65 425 93 681 68z m-3287 -365 c45 -9 116 -76 137 -129
24 -64 15 -116 -44 -239 -127 -267 -309 -503 -427 -556 -75 -34 -93 -34 -187
2 -56 21 -108 142 -108 252 1 141 55 285 163 428 144 192 303 274 466 242z
m4497 -104 c44 -22 111 -66 150 -97 298 -243 374 -333 374 -444 0 -143 -114
-353 -224 -412 -35 -19 -57 -22 -146 -22 -96 0 -110 3 -165 29 -106 52 -205
176 -254 319 -34 97 -74 317 -75 407 -2 133 29 195 120 240 65 32 129 27 220
-20z m-4704 -1085 c368 -37 626 -116 714 -218 62 -72 77 -112 76 -200 -1 -102
-29 -240 -112 -552 -32 -123 -120 -417 -152 -510 -61 -180 -135 -293 -221
-337 -61 -31 -185 -38 -457 -28 -369 15 -437 28 -506 102 -61 64 -94 161 -119
349 -26 192 -29 376 -11 539 41 355 126 600 255 742 116 126 208 145 533 113z
m4983 -186 c146 -15 201 -36 262 -103 63 -68 89 -124 104 -216 20 -127 -5
-451 -45 -583 -19 -64 -117 -225 -164 -269 -82 -77 -272 -170 -404 -197 -51
-11 -113 -25 -138 -31 -52 -14 -173 -7 -269 16 -137 31 -289 142 -344 251 -51
101 -121 392 -133 555 -16 219 108 456 289 549 89 46 124 50 437 44 162 -3
344 -10 405 -16z m-3076 -324 c54 -8 107 -18 117 -21 74 -27 164 -130 164
-186 0 -16 -21 -70 -46 -121 -73 -145 -105 -256 -134 -465 -24 -180 -72 -275
-171 -341 -72 -48 -139 -60 -241 -41 -139 25 -243 79 -308 162 -75 95 -105
168 -125 313 -41 285 7 554 115 643 25 21 93 55 125 63 56 13 400 10 504 -6z
m1301 -45 c122 -20 196 -77 222 -173 11 -44 10 -61 -16 -180 -16 -73 -37 -175
-48 -227 -59 -287 -98 -408 -153 -469 -19 -20 -55 -48 -82 -61 -84 -43 -249
-28 -367 32 -102 52 -188 171 -222 308 -22 85 -25 361 -5 440 21 88 69 175
122 225 66 62 104 77 264 109 42 8 223 5 285 -4z m2608 -686 c73 -36 136 -134
194 -302 47 -137 23 -320 -61 -449 -67 -104 -153 -130 -237 -73 -74 52 -146
231 -173 433 -34 250 12 373 154 408 52 12 70 10 123 -17z m-1165 -739 c189
-93 255 -341 163 -612 -31 -92 -339 -694 -388 -761 -63 -85 -157 -144 -277
-172 -85 -20 -220 5 -566 105 -246 71 -265 84 -321 231 -7 16 -30 76 -52 134
-22 58 -74 182 -116 277 -99 226 -137 350 -142 473 -4 85 -2 100 19 139 34 65
60 80 168 96 108 15 342 41 509 55 179 16 470 41 640 55 222 19 292 15 363
-20z m-2802 -50 c138 -49 157 -176 67 -440 -18 -52 -55 -139 -128 -299 -10
-22 -42 -95 -70 -161 -63 -147 -118 -250 -177 -333 -47 -66 -207 -210 -313
-282 -116 -79 -315 -150 -418 -150 -175 0 -384 134 -466 300 -66 133 -231 540
-305 752 -35 102 -57 237 -47 289 9 52 45 100 91 126 61 33 166 50 455 73 146
11 312 25 370 30 58 6 133 10 166 10 34 0 97 7 140 15 44 7 131 21 194 30 63
8 156 24 205 34 111 24 179 26 236 6z m-2223 -314 c75 -39 121 -110 176 -271
62 -182 103 -428 94 -560 -6 -77 -34 -127 -99 -173 -45 -33 -76 -34 -132 -6
-104 52 -133 90 -241 306 -127 255 -159 375 -131 486 26 102 81 171 170 213
61 29 113 30 163 5z m5855 -75 c42 -17 102 -80 127 -133 52 -111 -2 -341 -136
-581 -51 -90 -139 -178 -189 -188 -50 -9 -96 14 -134 66 -52 72 -66 130 -65
270 2 197 42 375 107 476 52 83 199 128 290 90z m-2967 -301 c45 -19 126 -76
183 -129 50 -48 185 -211 257 -311 189 -264 316 -587 336 -855 3 -38 2 -38 78
-21 25 5 227 17 450 25 451 18 492 15 570 -39 51 -35 104 -99 125 -148 23 -56
19 -143 -10 -205 -66 -141 -310 -305 -570 -381 -186 -55 -356 -83 -528 -89
-181 -5 -208 -1 -347 56 -109 44 -240 142 -294 221 -29 41 -61 133 -71 201
-33 237 -116 632 -150 720 -7 19 -16 48 -20 63 -5 24 -9 27 -28 21 -12 -4 -30
-16 -39 -26 -13 -16 -20 -17 -37 -8 -12 6 -21 7 -21 1 0 -5 7 -11 15 -15 16
-6 12 -51 -8 -96 -16 -35 -15 -34 -32 -20 -12 10 -15 10 -15 -3 0 -8 6 -17 12
-19 10 -4 10 -15 0 -54 -6 -27 -17 -89 -23 -139 -6 -49 -15 -117 -20 -150 -5
-33 -13 -100 -18 -150 -12 -108 -42 -248 -71 -330 -12 -33 -26 -77 -32 -98
-13 -47 -88 -116 -164 -152 -151 -71 -311 -82 -602 -39 -300 43 -475 85 -647
154 -147 58 -233 130 -282 235 -24 52 -28 72 -28 155 0 86 3 100 28 142 32 55
76 91 138 114 46 16 347 36 769 49 150 5 223 11 241 21 31 16 37 39 45 174 17
281 127 540 367 863 177 236 313 317 443 262z m2800 -1026 c27 -17 70 -51 95
-75 91 -83 124 -90 524 -104 341 -11 406 -20 565 -76 180 -62 263 -129 334
-266 33 -65 36 -77 36 -157 0 -47 -9 -142 -20 -211 -19 -116 -25 -135 -87
-259 -37 -73 -72 -139 -79 -146 -7 -6 -19 -29 -28 -49 -8 -20 -30 -60 -48 -89
-45 -71 -55 -87 -74 -121 -9 -16 -25 -39 -36 -50 -11 -12 -27 -34 -35 -51 -21
-40 -41 -65 -126 -159 -40 -43 -74 -84 -76 -90 -9 -23 -331 -350 -437 -443
-166 -146 -246 -213 -253 -213 -4 0 -21 -11 -37 -25 -16 -14 -34 -25 -40 -25
-6 0 -20 -8 -32 -17 -11 -10 -30 -25 -42 -33 -12 -8 -42 -30 -66 -48 -76 -57
-411 -219 -514 -248 -52 -14 -104 -32 -115 -38 -11 -7 -63 -27 -115 -45 -52
-18 -102 -36 -111 -41 -59 -31 -362 -51 -428 -28 -13 5 -54 13 -91 18 -37 5
-89 19 -115 30 -98 42 -208 193 -248 340 -39 143 -47 285 -19 337 7 12 12 36
12 53 0 20 11 45 30 69 36 44 69 50 158 25 31 -9 81 -21 110 -27 28 -6 52 -14
52 -18 0 -3 -12 -15 -27 -25 -16 -9 -35 -26 -44 -36 -9 -10 -21 -18 -27 -18
-5 0 -17 -10 -25 -22 -8 -13 -32 -42 -54 -64 -48 -53 -75 -85 -91 -112 -10
-19 -10 -22 5 -22 10 0 71 54 136 120 65 66 125 120 133 120 8 0 14 4 14 9 0
5 9 12 19 16 25 8 38 44 20 56 -10 6 -10 9 -2 9 6 0 14 -4 18 -10 15 -25 55
27 55 72 0 14 5 18 15 14 21 -7 19 14 -2 29 -13 10 -15 16 -6 26 6 8 12 19 14
24 8 32 42 95 51 95 10 0 8 -22 -8 -77 -4 -14 -2 -23 5 -23 6 0 11 7 11 15 0
8 5 15 10 15 6 0 10 -7 10 -15 0 -23 16 -18 28 10 14 31 6 55 -19 55 -10 0
-19 5 -19 10 0 13 64 3 101 -16 43 -21 197 -38 223 -24 24 13 63 70 72 105 3
13 17 34 31 46 22 22 36 24 166 30 150 7 220 23 277 61 32 22 106 106 128 144
9 16 27 18 159 18 175 1 215 14 247 80 58 119 35 639 -35 777 -40 80 -53 82
-194 39 -54 -16 -116 -30 -139 -30 l-42 0 -32 74 c-67 156 -112 327 -112 423
0 99 42 213 97 265 59 56 118 62 189 17z m-5580 -60 c42 -15 91 -69 118 -129
52 -116 45 -234 -25 -372 -80 -161 -138 -232 -199 -241 -19 -3 -90 1 -158 10
-146 18 -152 16 -199 -74 -61 -114 -67 -142 -66 -323 2 -174 15 -273 53 -372
48 -128 76 -141 303 -144 93 -1 170 -4 171 -6 1 -1 18 -30 37 -62 58 -99 88
-108 274 -81 213 32 190 34 222 -17 16 -25 40 -58 54 -75 58 -69 171 -99 339
-89 58 4 110 3 116 -1 7 -5 35 -46 64 -93 28 -47 61 -96 73 -109 30 -32 107
-81 129 -81 10 0 54 19 97 41 46 24 84 38 91 34 38 -24 74 -185 85 -381 6
-114 5 -125 -20 -199 -50 -144 -132 -252 -245 -319 -100 -60 -147 -71 -315
-71 -134 0 -159 3 -235 27 -47 15 -124 38 -171 52 -75 22 -160 55 -264 101
-16 7 -82 33 -145 59 -63 25 -140 57 -170 72 -30 15 -95 44 -145 66 -278 122
-504 279 -716 495 -144 147 -229 253 -330 414 -195 309 -282 489 -400 823
-114 321 -126 503 -42 631 61 93 104 134 181 172 101 50 163 52 277 6 89 -36
251 -84 363 -108 225 -47 404 29 544 232 81 117 155 150 254 112z m5712 -882
c28 -59 44 -508 20 -539 -19 -23 -90 -29 -213 -16 -87 8 -114 14 -127 30 -25
27 -41 120 -40 229 1 147 32 245 88 280 42 26 145 48 209 46 44 -2 51 -5 63
-30z m-5811 -26 c34 -28 69 -107 82 -182 13 -78 14 -358 2 -378 -19 -30 -213
-35 -299 -9 -48 14 -60 51 -73 221 -14 173 1 282 46 326 40 40 203 55 242 22z
m458 -85 c53 -22 122 -93 151 -154 26 -55 26 -60 20 -177 -9 -154 -20 -262
-27 -269 -9 -10 -257 -56 -299 -56 -34 0 -42 4 -55 29 -22 44 -28 148 -16 321
11 175 20 216 58 261 47 55 105 71 168 45z m4751 -51 c49 -37 68 -75 128 -260
63 -195 73 -243 56 -275 -21 -39 -107 -70 -222 -79 -119 -9 -147 -2 -160 44
-28 98 -59 225 -64 266 -14 108 71 274 161 315 43 19 64 17 101 -11z m-472
-196 c35 -28 61 -81 102 -208 52 -163 58 -206 34 -255 -40 -82 -93 -126 -152
-126 -34 0 -171 24 -200 35 -29 11 -75 263 -63 349 8 60 37 131 68 165 54 58
162 79 211 40z m-3717 -4 c88 -37 145 -108 163 -206 11 -56 -1 -245 -21 -320
-9 -35 -10 -36 -78 -48 -39 -6 -103 -11 -144 -11 -60 0 -80 4 -108 23 -47 31
-75 78 -83 135 -9 70 10 235 35 291 25 59 83 118 135 136 50 18 57 18 101 0z
m640 -157 c45 -20 100 -67 129 -111 40 -61 31 -152 -30 -317 -52 -137 -84
-180 -135 -180 -16 0 -62 -16 -102 -35 -100 -48 -121 -46 -154 8 -65 111 -87
249 -62 382 20 102 32 133 65 168 75 79 212 119 289 85z m2582 -16 c39 -29 61
-73 88 -180 40 -155 30 -329 -23 -410 -15 -23 -19 -24 -83 -17 -36 4 -104 10
-151 14 l-84 6 -38 50 c-74 97 -105 241 -78 356 35 144 266 258 369 181z
m-832 -18 c63 -22 151 -82 200 -138 26 -30 61 -93 98 -178 32 -73 78 -171 102
-218 79 -155 70 -160 -195 -99 -119 27 -163 45 -189 78 -26 34 -112 209 -132
270 -33 101 -28 239 11 280 23 25 42 26 105 5z m-516 -52 c77 -38 178 -122
218 -181 57 -83 80 -133 127 -273 37 -111 41 -130 28 -142 -20 -20 -103 -29
-220 -23 -55 2 -214 10 -354 16 -142 7 -260 16 -267 22 -22 19 -36 81 -30 141
6 68 35 129 116 242 73 103 126 157 192 196 63 36 118 37 190 2z m-588 -13
c51 -33 82 -71 98 -118 13 -38 -11 -96 -71 -172 -50 -63 -79 -120 -110 -212
-16 -48 -30 -71 -44 -77 -39 -14 -188 -30 -288 -30 l-98 0 0 31 c0 36 151 335
215 424 76 107 172 183 231 185 11 0 42 -14 67 -31z m2115 -661 c-32 -25 -45
-22 -21 5 11 12 24 31 28 42 8 19 9 19 13 -4 3 -17 -3 -30 -20 -43z m-728 -68
c30 -10 71 -21 91 -24 54 -10 63 -25 55 -99 -13 -110 -44 -246 -69 -302 -38
-83 -113 -114 -188 -80 -80 37 -124 71 -147 115 -22 42 -23 53 -18 170 6 143
17 192 53 227 23 24 29 25 96 18 40 -3 97 -15 127 -25z m670 21 c0 -6 -4 -13
-10 -16 -5 -3 -10 1 -10 9 0 9 5 16 10 16 6 0 10 -4 10 -9z m-2184 -81 c22
-99 34 -263 23 -305 -21 -76 -90 -157 -145 -171 -14 -4 -46 -4 -72 -1 -40 4
-53 12 -86 49 -69 77 -106 195 -106 341 0 111 5 117 93 118 40 0 97 7 127 14
30 7 77 12 104 11 l50 -1 12 -55z m1082 43 c5 -10 15 -49 22 -87 32 -172 -32
-391 -130 -441 -73 -38 -133 -2 -195 116 -66 125 -82 246 -47 339 20 52 52 68
142 70 30 1 80 5 110 10 85 11 89 11 98 -7z m-542 -14 c35 -29 51 -161 29
-243 -43 -162 -104 -269 -164 -287 -72 -21 -124 30 -192 188 -32 73 -34 86
-34 186 l0 109 39 35 38 35 136 -6 c74 -3 141 -11 148 -17z"/>
<path d="M5900 9337 c-58 -6 -94 -13 -80 -15 23 -4 24 -5 5 -13 -16 -6 -14 -8
13 -8 21 -1 32 -6 32 -16 0 -18 -12 -19 -27 -4 -7 7 -35 10 -72 7 -34 -2 -61
-3 -61 0 0 7 25 29 40 35 27 10 -64 7 -105 -4 -106 -27 -183 -94 -252 -217
l-37 -66 2 -125 c2 -162 19 -295 45 -351 13 -29 115 -135 136 -142 25 -7 140
58 199 113 32 30 88 81 126 114 38 33 82 72 98 86 16 14 37 37 46 51 22 34
299 347 330 373 12 11 36 32 53 47 16 14 35 28 41 30 16 6 2 38 -16 38 -9 0
-23 -12 -33 -27 -24 -39 -104 -116 -218 -209 -37 -30 -108 -92 -141 -121 -13
-12 -24 -26 -24 -31 0 -4 -13 -18 -30 -30 -16 -13 -30 -29 -30 -37 0 -8 -6
-15 -14 -15 -16 0 -28 -24 -21 -42 3 -7 1 -18 -3 -23 -14 -20 -130 -115 -140
-115 -5 0 -26 -18 -45 -39 -19 -22 -45 -42 -56 -45 -12 -3 -30 -9 -41 -12 -15
-4 -20 -1 -20 15 0 12 5 21 10 21 6 0 10 6 10 14 0 8 8 17 19 21 10 3 30 16
44 28 13 12 34 30 46 39 22 19 28 38 10 38 -19 0 -124 -77 -147 -109 -12 -17
-30 -31 -40 -31 -12 0 -8 -7 16 -26 17 -14 32 -30 32 -35 0 -17 -27 -39 -48
-39 -35 0 -78 24 -74 41 2 10 -5 19 -17 22 -28 7 -17 38 30 81 21 20 40 36 43
36 2 0 18 14 34 30 17 17 39 30 50 30 10 0 30 12 43 28 13 15 41 39 61 52 37
25 50 50 25 50 -7 0 -20 -8 -29 -17 -21 -24 -60 -53 -70 -53 -18 0 -6 31 15
40 12 5 35 20 51 34 16 14 33 26 39 26 11 0 149 121 190 168 16 17 35 32 43
32 17 0 54 57 54 83 0 9 -7 17 -15 17 -19 0 -65 -21 -65 -31 0 -15 -134 -139
-151 -139 -10 0 -21 -12 -28 -30 -6 -19 -17 -30 -29 -30 -23 0 -74 -45 -64
-56 4 -4 2 -4 -5 0 -7 4 -28 -9 -50 -31 -21 -21 -47 -43 -57 -49 -23 -12 -33
-28 -41 -66 -3 -16 -11 -28 -18 -28 -16 -1 -57 -35 -57 -49 0 -6 -4 -11 -9
-11 -5 0 -16 -3 -25 -6 -12 -5 -16 0 -16 20 0 15 5 25 12 23 7 -1 14 8 16 21
2 14 10 22 23 22 22 0 42 41 33 65 -4 9 -1 15 7 15 8 0 23 18 33 40 11 22 23
40 28 40 4 0 8 7 8 15 0 9 11 20 24 25 14 5 30 18 35 29 6 10 27 29 46 41 19
12 35 28 35 36 0 8 4 14 9 14 6 0 18 14 28 30 20 34 38 40 28 10 -8 -25 6 -26
56 -2 23 10 39 24 39 34 0 10 16 28 35 40 19 13 35 27 35 32 0 4 19 28 43 51
23 24 50 55 60 69 17 25 23 26 107 26 59 0 90 -4 90 -11 0 -11 46 -8 119 7 19
4 36 2 40 -3 3 -6 22 -14 41 -17 l35 -7 -40 26 c-40 25 -42 25 -235 23 -107 0
-242 -6 -300 -11z m40 -17 c-8 -5 -24 -10 -35 -10 -17 0 -17 2 -5 10 8 5 24
10 35 10 17 0 17 -2 5 -10z m-132 -97 c-8 -10 -18 -26 -21 -35 -7 -21 -67 -59
-79 -52 -18 11 -6 31 40 67 51 39 88 52 60 20z m55 -51 c8 -11 -26 -49 -51
-56 -22 -7 -22 -7 3 20 14 15 25 31 25 35 0 11 17 12 23 1z m-277 -74 c-41
-33 -51 -12 -13 28 20 20 23 21 28 6 5 -11 -1 -23 -15 -34z m117 1 c-6 -20
-50 -45 -61 -34 -7 7 40 53 55 54 6 1 9 -7 6 -20z m-178 -65 c-19 -20 -35 -17
-35 5 0 23 20 32 37 19 10 -8 9 -13 -2 -24z m-35 -62 c0 -5 -11 -22 -25 -38
-19 -23 -25 -25 -25 -11 0 9 4 17 9 17 5 0 11 9 14 20 5 19 27 29 27 12z m-63
-74 c-3 -8 -6 -5 -6 6 -1 11 2 17 5 13 3 -3 4 -12 1 -19z m49 -95 c-10 -10
-19 5 -10 18 6 11 8 11 12 0 2 -7 1 -15 -2 -18z m451 -45 c-3 -8 -6 -5 -6 6
-1 11 2 17 5 13 3 -3 4 -12 1 -19z m-477 2 c0 -5 -4 -10 -10 -10 -5 0 -10 5
-10 10 0 6 5 10 10 10 6 0 10 -4 10 -10z"/>
<path d="M6220 9288 c0 -6 -7 -20 -17 -30 -9 -10 -14 -20 -11 -23 9 -10 68 30
64 42 -3 7 9 13 32 16 30 3 27 4 -15 5 -35 1 -53 -2 -53 -10z"/>
<path d="M6067 9252 c-20 -21 -37 -41 -37 -45 0 -17 31 -5 59 24 29 29 41 59
23 59 -4 0 -25 -17 -45 -38z"/>
<path d="M6150 9205 c-19 -23 -8 -37 18 -20 12 9 22 20 22 26 0 14 -26 11 -40
-6z"/>
<path d="M6490 9128 c-40 -39 -90 -99 -90 -109 0 -5 -7 -9 -15 -9 -19 0 -57
-38 -50 -50 3 -5 -7 -16 -22 -24 -15 -8 -55 -40 -88 -70 -33 -31 -64 -56 -68
-56 -5 0 -5 -9 -2 -21 6 -18 4 -20 -15 -14 -17 5 -21 3 -19 -12 1 -10 -1 -26
-6 -36 -21 -49 29 -18 154 95 35 32 73 58 84 58 15 0 18 5 13 24 -6 25 15 43
36 29 7 -4 9 1 6 15 -4 14 0 22 14 25 11 3 22 15 25 27 6 24 40 40 84 40 l29
0 -20 20 c-11 11 -29 20 -40 20 -28 0 -25 28 4 32 18 2 22 7 17 21 -6 17 -9
17 -31 -5z m-10 -78 c0 -5 -5 -10 -11 -10 -5 0 -7 5 -4 10 3 6 8 10 11 10 2 0
4 -4 4 -10z"/>
<path d="M6553 9113 c-9 -19 -10 -29 -2 -34 6 -3 12 -21 14 -40 2 -19 7 -49
11 -66 4 -22 3 -33 -5 -33 -6 0 -11 -5 -11 -11 0 -5 5 -7 10 -4 6 4 10 -13 11
-42 l1 -48 13 48 c14 50 6 136 -19 219 l-11 37 -12 -26z"/>
<path d="M6033 9045 c-15 -16 -17 -45 -4 -45 12 0 41 46 34 54 -9 9 -17 7 -30
-9z"/>
<path d="M5751 9004 c0 -11 3 -14 6 -6 3 7 2 16 -1 19 -3 4 -6 -2 -5 -13z"/>
<path d="M6500 8920 c-8 -16 -8 -20 3 -20 8 0 22 9 32 20 18 19 17 20 -3 20
-12 0 -26 -9 -32 -20z"/>
<path d="M5930 8898 c-8 -8 -23 -17 -32 -21 -17 -6 -26 -37 -10 -37 16 1 64
49 60 60 -3 10 -7 9 -18 -2z"/>
<path d="M6560 8871 c0 -5 -9 -11 -20 -14 -28 -7 -25 -27 5 -27 20 0 25 5 25
25 0 14 -2 25 -5 25 -3 0 -5 -4 -5 -9z"/>
<path d="M6388 8808 c-27 -28 -48 -56 -48 -63 0 -6 -13 -24 -30 -40 -31 -30
-39 -59 -17 -69 6 -3 3 -4 -9 -1 -13 3 -27 -3 -41 -19 -11 -13 -35 -32 -52
-42 -17 -10 -31 -23 -31 -29 0 -6 -13 -19 -30 -28 -17 -10 -30 -27 -30 -37 0
-23 -36 -68 -65 -81 -16 -8 -14 -8 8 -4 16 3 38 15 50 25 11 11 30 23 41 26
11 4 29 17 39 30 18 24 57 33 57 14 0 -6 11 -3 24 6 15 9 22 21 19 30 -3 9 2
14 16 14 27 0 91 41 91 58 0 18 21 38 47 46 18 6 20 4 16 -14 -3 -11 -14 -27
-25 -35 -11 -7 -17 -18 -13 -24 3 -6 1 -11 -5 -11 -7 0 -6 -5 2 -14 8 -9 15
-10 19 -4 4 6 12 7 19 3 9 -5 10 -2 6 13 -5 15 -2 22 14 27 11 3 20 15 20 25
0 10 5 22 10 25 6 3 10 25 10 48 1 41 1 42 15 17 11 -20 14 -21 15 -7 0 10 7
25 15 34 33 32 -11 59 -46 27 -18 -16 -19 -16 -19 10 0 15 7 29 15 32 21 9 7
26 -15 19 -14 -4 -19 0 -22 16 -5 36 -20 31 -70 -23z m56 -42 c-24 -21 -42
-30 -46 -23 -10 16 2 37 23 37 10 0 19 5 19 10 0 6 10 10 22 10 18 0 16 -5
-18 -34z m-54 -33 c0 -12 -46 -53 -59 -53 -19 0 -12 32 9 37 11 3 20 9 20 14
0 5 7 9 15 9 8 0 15 -3 15 -7z"/>
<path d="M6302 8803 c-7 -3 -23 -15 -35 -27 -13 -11 -51 -46 -86 -76 -129
-111 -163 -148 -159 -175 3 -23 8 -19 83 51 44 41 112 105 152 142 79 73 96
106 45 85z"/>
<path d="M5805 8754 c-16 -14 -36 -29 -44 -34 -15 -8 -7 -30 10 -30 16 0 90
76 82 83 -10 11 -16 9 -48 -19z"/>
<path d="M6046 8655 c-22 -20 -50 -35 -64 -35 -22 0 -24 -3 -19 -34 6 -40 -11
-61 -42 -51 -21 7 -71 -3 -71 -14 0 -4 8 -16 18 -27 18 -18 18 -20 -7 -54 -49
-65 -70 -83 -86 -70 -16 13 -35 5 -35 -15 0 -17 22 -25 67 -25 28 0 34 3 29
16 -3 8 -2 13 3 9 5 -3 31 20 58 51 26 31 53 62 60 69 6 7 19 27 28 46 38 80
57 110 73 116 22 9 42 29 42 42 0 18 -13 12 -54 -24z"/>
<path d="M5507 8534 c-14 -14 -7 -35 11 -32 9 2 17 10 17 17 0 16 -18 25 -28
15z"/>
<path d="M6000 8471 c-12 -24 -13 -34 -1 -27 9 6 22 46 15 46 -2 0 -8 -9 -14
-19z"/>
<path d="M5746 8415 c-3 -8 -1 -15 4 -15 6 0 10 7 10 15 0 8 -2 15 -4 15 -2 0
-6 -7 -10 -15z"/>
<path d="M5657 8373 c-13 -12 -7 -23 13 -23 13 0 18 5 14 15 -7 16 -17 19 -27
8z"/>
<path d="M7305 7613 c-379 -17 -513 -67 -593 -218 -22 -43 -26 -64 -28 -145
-4 -180 42 -317 136 -403 50 -46 72 -51 84 -20 6 14 9 14 29 0 28 -18 43 -11
52 26 4 15 12 27 17 27 9 0 91 76 214 198 24 23 38 42 33 42 -12 0 2 27 30 57
12 12 21 25 21 27 0 11 93 96 111 101 11 4 19 11 19 16 0 5 3 8 8 7 11 -3 112
64 112 73 0 5 6 9 14 9 7 0 35 21 62 47 27 25 52 46 55 45 4 -1 4 8 1 20 -4
18 -2 20 21 16 36 -7 34 4 -8 41 -42 37 -40 36 -71 12 -23 -18 -23 -19 -3 -24
28 -7 16 -25 -13 -21 -31 5 -49 -11 -82 -76 -16 -30 -37 -61 -47 -68 -11 -7
-19 -20 -19 -28 0 -9 -6 -14 -12 -11 -22 8 -81 -33 -128 -88 -25 -30 -51 -54
-57 -54 -7 -1 -23 -18 -37 -39 -54 -86 -166 -172 -166 -128 0 19 -25 27 -39
13 -15 -15 -14 -27 3 -27 31 0 20 -26 -32 -77 -45 -44 -57 -51 -73 -42 -34 17
-17 66 20 56 18 -4 21 -1 21 23 0 16 6 31 13 33 9 4 9 6 -1 6 -7 1 -31 -12
-54 -29 -22 -16 -45 -30 -51 -30 -5 0 -22 -11 -39 -25 -29 -25 -68 -34 -68
-16 0 5 7 11 15 15 8 3 15 12 15 20 0 15 59 66 76 66 5 0 22 18 37 40 16 22
37 40 47 40 10 0 21 9 25 19 3 11 22 32 43 47 20 15 40 32 43 37 6 9 56 63
242 260 31 33 57 63 58 66 1 17 62 52 82 48 12 -3 31 -1 42 3 14 6 3 9 -37 9
-31 1 -62 2 -70 4 -7 2 -40 2 -73 0z m15 -25 c0 -7 -15 -29 -33 -49 -53 -61
-87 -101 -87 -104 0 -8 -169 -173 -173 -169 -12 12 -46 -18 -52 -45 -4 -19
-15 -33 -28 -37 -25 -8 -114 -100 -123 -126 -3 -10 -10 -18 -15 -18 -5 0 -9
-7 -9 -15 0 -12 -28 -35 -44 -35 -12 0 -37 76 -35 105 1 17 -1 44 -5 62 -13
57 46 134 60 78 4 -16 0 -35 -10 -50 -9 -14 -14 -25 -11 -25 21 0 78 35 120
75 28 26 62 56 77 66 15 11 30 28 33 39 4 11 12 20 20 20 7 0 15 4 17 8 7 17
84 70 111 76 15 4 27 11 27 17 0 5 16 17 35 25 19 8 35 19 35 24 0 6 7 10 15
10 8 0 15 5 15 10 0 17 -68 6 -121 -21 -9 -4 -19 -6 -22 -3 -10 11 6 44 24 49
11 4 17 11 14 16 -4 5 7 9 24 9 16 0 33 5 36 10 9 15 105 13 105 -2z m275 -98
c-16 -16 -31 -28 -33 -25 -7 7 39 55 52 55 5 0 -3 -13 -19 -30z m-495 -9 c0
-14 -18 -23 -30 -16 -6 4 -8 11 -5 16 8 12 35 12 35 0z m-239 -551 c25 -14 24
-26 -5 -45 -24 -16 -56 -11 -56 8 0 10 29 47 37 47 2 0 13 -5 24 -10z m15 -97
c-10 -10 -19 5 -10 18 6 11 8 11 12 0 2 -7 1 -15 -2 -18z"/>
<path d="M7568 7603 c7 -3 16 -2 19 1 4 3 -2 6 -13 5 -11 0 -14 -3 -6 -6z"/>
<path d="M7408 7543 c-15 -8 -36 -26 -47 -41 -10 -15 -38 -47 -60 -70 -34 -35
-40 -47 -30 -58 9 -11 8 -14 -6 -14 -22 0 -125 -100 -125 -121 0 -10 12 -19
31 -23 40 -8 47 -3 55 39 3 20 13 37 23 40 10 3 33 19 51 35 19 17 38 30 43
30 11 0 36 30 37 44 0 5 -13 6 -30 3 -45 -10 -37 9 31 73 64 58 75 86 27 63z"/>
<path d="M7447 7497 c-55 -52 -70 -77 -44 -77 21 1 53 23 84 60 70 83 42 95
-40 17z"/>
<path d="M7770 7487 c0 -13 42 -87 49 -87 12 0 2 38 -17 68 -12 18 -32 30 -32
19z"/>
<path d="M7670 7435 c0 -8 2 -15 4 -15 2 0 6 7 10 15 3 8 1 15 -4 15 -6 0 -10
-7 -10 -15z"/>
<path d="M7679 7360 c-27 -28 -49 -55 -49 -60 0 -12 -29 -40 -56 -56 -10 -6
-24 -22 -31 -35 -7 -14 -33 -40 -58 -58 -25 -18 -45 -36 -45 -41 0 -5 -13 -11
-29 -15 -26 -6 -59 -27 -123 -80 -41 -33 -98 -64 -132 -70 -24 -5 -43 -17 -58
-37 -20 -29 -20 -30 -1 -24 12 4 20 2 21 -6 0 -7 3 -23 7 -34 5 -16 2 -23 -13
-26 -10 -3 -25 -19 -33 -36 -9 -22 -23 -34 -44 -38 l-30 -7 27 -9 c37 -13 110
3 114 24 1 9 21 33 44 55 24 21 67 72 96 113 29 41 64 86 78 100 14 14 40 40
58 58 34 35 48 40 48 18 0 -8 -27 -38 -61 -67 -34 -30 -75 -74 -92 -99 -17
-25 -33 -47 -37 -50 -3 -3 -19 -26 -35 -52 -17 -27 -33 -48 -37 -48 -5 0 -8
-7 -8 -15 0 -25 52 19 108 89 26 34 80 94 120 135 40 40 86 92 101 115 16 22
56 67 90 99 34 32 61 62 61 67 0 6 7 10 15 10 10 0 15 -10 16 -27 0 -16 3 -22
6 -15 2 6 10 12 16 12 7 0 32 21 57 47 l45 47 6 -45 6 -44 1 56 c2 46 -1 58
-15 64 -10 3 -19 1 -21 -4 -2 -6 -20 -11 -40 -11 -28 0 -33 3 -24 12 7 7 12
18 12 25 0 27 -34 11 -81 -37z m-449 -430 c0 -5 -7 -10 -16 -10 -8 0 -12 5 -9
10 3 6 10 10 16 10 5 0 9 -4 9 -10z"/>
<path d="M7561 7352 c-11 -15 -44 -41 -75 -56 -31 -16 -81 -52 -111 -82 -31
-29 -64 -56 -75 -59 -25 -8 -26 -22 -1 -30 14 -4 30 4 55 30 19 19 40 35 46
35 5 0 20 10 32 23 12 12 36 27 53 33 17 6 29 18 29 27 -1 9 4 13 12 10 8 -3
14 1 14 8 0 8 18 24 40 37 22 12 40 29 40 37 0 25 -37 17 -59 -13z"/>
<path d="M7190 7185 c-7 -9 -8 -15 -2 -15 5 0 12 7 16 15 3 8 4 15 2 15 -2 0
-9 -7 -16 -15z"/>
<path d="M7843 7130 c0 -36 2 -50 4 -32 2 17 2 47 0 65 -2 17 -4 3 -4 -33z"/>
<path d="M7782 7159 c2 -6 8 -10 13 -10 5 0 11 4 13 10 2 6 -4 11 -13 11 -9 0
-15 -5 -13 -11z"/>
<path d="M7112 7148 c-7 -7 -12 -18 -12 -24 0 -20 22 -28 34 -12 6 8 19 17 29
21 9 3 17 11 17 17 0 14 -53 13 -68 -2z"/>
<path d="M7740 7130 c0 -5 7 -10 16 -10 8 0 12 5 9 10 -3 6 -10 10 -16 10 -5
0 -9 -4 -9 -10z"/>
<path d="M7702 7087 c-18 -7 -45 -24 -60 -38 -45 -44 -162 -161 -206 -206 -22
-24 -44 -43 -48 -43 -4 0 -8 -4 -8 -10 0 -21 38 -9 72 23 43 40 77 67 83 67 3
0 39 35 80 78 152 157 147 150 87 129z"/>
<path d="M7826 7043 c-6 -14 -5 -15 5 -6 7 7 10 15 7 18 -3 3 -9 -2 -12 -12z"/>
<path d="M7776 7024 c-4 -9 -4 -19 -1 -22 2 -3 7 3 11 12 4 9 4 19 1 22 -2 3
-7 -3 -11 -12z"/>
<path d="M7695 6950 c4 -6 11 -8 16 -5 14 9 11 15 -7 15 -8 0 -12 -5 -9 -10z"/>
<path d="M7052 6858 c-8 -8 -9 -15 -1 -25 17 -20 29 -15 29 12 0 27 -9 32 -28
13z"/>
<path d="M7520 6810 c0 -5 5 -10 11 -10 5 0 7 5 4 10 -3 6 -8 10 -11 10 -2 0
-4 -4 -4 -10z"/>
<path d="M6903 6793 c9 -3 17 -9 17 -14 0 -5 9 -9 20 -9 38 0 21 25 -18 26
-20 1 -29 -1 -19 -3z"/>
<path d="M7465 6760 c-3 -5 -2 -10 4 -10 5 0 13 5 16 10 3 6 2 10 -4 10 -5 0
-13 -4 -16 -10z"/>
<path d="M7440 6730 c0 -5 5 -10 10 -10 6 0 10 5 10 10 0 6 -4 10 -10 10 -5 0
-10 -4 -10 -10z"/>
<path d="M7270 6710 c0 -13 11 -13 30 0 12 8 11 10 -7 10 -13 0 -23 -4 -23
-10z"/>
<path d="M7357 6688 c-6 -21 18 -37 34 -21 5 5 1 15 -10 25 -18 15 -19 15 -24
-4z"/>
<path d="M7310 6650 c0 -5 9 -10 20 -10 11 0 20 5 20 10 0 6 -9 10 -20 10 -11
0 -20 -4 -20 -10z"/>
<path d="M4202 7225 c-74 -16 -117 -41 -165 -95 -63 -69 -72 -94 -72 -205 0
-74 5 -108 17 -130 37 -68 141 -138 166 -113 7 7 12 17 12 24 0 19 42 92 66
115 l22 21 17 -26 c12 -18 23 -24 39 -21 11 3 33 2 49 -2 l27 -8 -20 -38 c-25
-46 -25 -46 1 -40 31 8 89 72 110 121 27 62 26 194 -2 259 -22 52 -69 107
-109 128 -42 21 -92 24 -158 10z m98 -70 c37 -19 61 -65 63 -120 2 -41 -2 -48
-63 -112 -43 -46 -78 -74 -103 -82 -37 -12 -40 -11 -83 21 -75 56 -80 136 -14
226 52 72 136 100 200 67z"/>
<path d="M5588 7191 c-61 -13 -167 -72 -197 -110 -58 -75 -74 -124 -69 -214 6
-126 49 -178 157 -191 52 -7 53 -6 48 16 -3 13 -9 43 -13 68 -4 25 -22 74 -40
109 -46 87 -44 108 16 180 80 96 113 110 165 69 32 -25 55 -74 55 -119 0 -43
-48 -111 -98 -138 -27 -15 -28 -37 -2 -44 22 -6 40 -44 40 -88 0 -19 5 -29 15
-29 23 0 112 87 142 138 23 39 25 51 21 120 -11 174 -100 261 -240 233z"/>
<path d="M6613 5515 c-92 -20 -166 -74 -205 -149 -29 -57 -36 -177 -13 -245
37 -112 87 -175 170 -212 79 -37 116 -22 124 48 5 43 10 50 41 65 21 9 39 13
44 7 6 -5 15 -4 22 2 9 8 11 5 7 -12 -5 -19 -4 -20 15 -10 11 6 28 8 37 5 14
-6 14 -8 0 -24 -13 -14 -13 -19 -2 -23 24 -9 75 21 101 60 49 74 52 162 9 248
-72 146 -113 196 -188 231 -57 27 -75 28 -162 9z m123 -70 c29 -19 54 -71 54
-113 0 -69 -138 -192 -216 -192 -67 0 -124 87 -110 166 9 43 107 149 147 157
39 8 98 0 125 -18z m84 -234 c0 -12 -20 -25 -27 -18 -7 7 6 27 18 27 5 0 9 -4
9 -9z m-120 -110 c0 -5 -7 -14 -15 -21 -12 -10 -15 -10 -15 2 0 8 3 18 7 21 9
10 23 9 23 -2z m150 -35 c0 -3 -4 -8 -10 -11 -5 -3 -10 -1 -10 4 0 6 5 11 10
11 6 0 10 -2 10 -4z m40 -26 c0 -5 -5 -10 -11 -10 -5 0 -7 5 -4 10 3 6 8 10
11 10 2 0 4 -4 4 -10z"/>
<path d="M3127 5559 c-81 -43 -103 -132 -94 -391 5 -149 19 -249 33 -235 7 7
16 49 17 77 1 14 4 27 7 30 13 13 68 88 80 109 7 14 21 34 31 45 11 11 19 26
19 33 0 7 6 13 13 13 7 0 19 6 26 13 6 6 15 12 19 13 17 2 47 19 64 36 10 10
27 18 38 18 10 0 24 9 30 20 6 11 17 20 25 20 15 0 30 18 22 26 -7 7 -41 -11
-63 -33 -12 -13 -19 -14 -21 -6 -6 18 -83 -23 -83 -43 0 -8 -5 -12 -10 -9 -6
4 -33 -17 -61 -47 -58 -60 -113 -128 -106 -128 3 0 -4 -11 -16 -24 -30 -33
-40 -22 -33 35 4 26 3 50 -2 53 -10 6 -4 104 8 125 4 8 6 33 4 55 -2 23 -1 35
2 29 10 -23 24 -13 24 17 0 17 -5 30 -11 30 -5 0 -7 5 -4 10 10 17 25 1 26
-28 2 -24 2 -24 6 -4 4 21 33 32 33 12 0 -5 -4 -10 -8 -10 -5 0 -16 -16 -25
-36 l-17 -35 22 7 c13 4 29 15 36 26 8 10 19 23 25 29 47 39 61 49 68 49 5 0
15 13 23 29 l15 29 -37 5 c-48 8 -81 -1 -110 -30 -12 -13 -31 -22 -40 -22 -16
1 -15 2 1 6 9 2 17 13 17 23 0 26 19 36 74 38 59 2 121 22 103 34 -25 16 -131
8 -170 -13z m69 -106 c-10 -10 -19 5 -10 18 6 11 8 11 12 0 2 -7 1 -15 -2 -18z"/>
<path d="M3360 5562 c0 -19 51 -31 98 -25 l47 7 -50 13 c-58 15 -95 17 -95 5z"/>
<path d="M3390 5496 c0 -2 7 -6 15 -10 8 -3 15 -1 15 4 0 6 -7 10 -15 10 -8 0
-15 -2 -15 -4z"/>
<path d="M3340 5480 c0 -5 5 -10 10 -10 6 0 10 5 10 10 0 6 -4 10 -10 10 -5 0
-10 -4 -10 -10z"/>
<path d="M3528 5379 c-15 -6 -57 -30 -94 -54 -37 -25 -70 -46 -73 -47 -3 -2
-20 -19 -37 -39 -56 -66 -80 -245 -45 -334 11 -25 85 -99 86 -85 0 2 18 -13
39 -34 84 -81 108 -82 219 -16 36 22 74 40 84 40 10 0 38 11 63 23 38 19 50
33 77 87 29 60 32 71 27 140 -9 154 -76 273 -176 314 -41 18 -128 20 -170 5z
m132 -64 c35 -18 70 -81 70 -126 0 -40 -46 -99 -123 -155 -54 -40 -63 -43
-100 -37 -49 7 -65 25 -97 104 -27 70 -20 97 41 156 72 70 146 91 209 58z"/>
<path d="M3173 5332 c-13 -2 -23 -10 -23 -18 0 -18 10 -17 34 1 23 17 20 22
-11 17z"/>
<path d="M3110 5240 c-8 -5 -12 -11 -9 -14 3 -3 14 1 25 9 21 16 8 20 -16 5z"/>
<path d="M3219 5138 c-11 -10 -13 -25 -8 -58 l6 -45 1 38 c1 21 7 47 12 58 12
22 10 24 -11 7z"/>
<path d="M3090 4869 c0 -25 69 -117 70 -93 0 6 -7 18 -17 25 -9 8 -24 32 -34
54 -16 35 -19 37 -19 14z"/>
<path d="M4945 5153 c-53 -13 -154 -114 -250 -249 -36 -50 -72 -97 -80 -104
-18 -15 -153 -212 -162 -238 -4 -9 -23 -41 -43 -72 -48 -72 -68 -130 -73 -212
-4 -51 -1 -68 9 -72 10 -4 14 3 14 22 0 15 5 34 10 42 8 12 11 11 17 -10 l7
-25 6 25 c3 14 16 29 28 35 12 5 22 13 22 17 0 5 6 8 14 8 8 0 16 4 18 9 4 10
104 126 135 155 12 12 49 46 84 76 34 30 68 61 75 68 7 6 16 12 21 12 4 1 20
19 36 41 15 22 32 37 37 34 6 -3 10 0 10 7 0 8 18 25 41 38 22 14 58 41 78 60
70 65 94 79 105 61 8 -13 46 -1 46 13 0 7 16 28 36 47 24 24 42 33 60 31 14
-2 24 2 24 9 0 19 -113 119 -142 126 -16 3 -28 9 -28 13 0 4 -15 15 -34 24
-33 15 -79 19 -121 9z m175 -83 c0 -5 6 -10 13 -10 7 0 20 -8 29 -19 8 -10 22
-21 29 -23 8 -3 11 -9 7 -13 -4 -4 -25 0 -47 8 -45 19 -37 23 -110 -62 -25
-28 -48 -51 -52 -51 -4 0 -11 9 -14 21 -6 19 -8 19 -30 5 -36 -23 -52 14 -17
40 26 20 49 17 55 -8 6 -21 8 -20 47 20 23 23 46 42 52 42 6 0 8 7 4 15 -3 8
-1 15 4 15 6 0 10 7 10 15 0 8 5 15 10 15 6 0 10 -4 10 -10z m0 -166 c0 -8 -4
-12 -10 -9 -5 3 -10 10 -10 16 0 5 5 9 10 9 6 0 10 -7 10 -16z m-213 -14 c-3
-11 -1 -23 4 -26 17 -10 9 -26 -11 -21 -13 3 -20 0 -20 -9 0 -8 -4 -14 -10
-14 -5 0 -10 4 -10 9 0 6 5 13 10 16 17 11 11 25 -11 25 -21 0 -21 0 2 20 32
26 53 26 46 0z m-107 -89 c0 -11 6 -22 13 -24 7 -3 -10 -26 -45 -60 -32 -31
-59 -52 -61 -49 -9 18 2 67 14 64 18 -4 80 31 75 43 -2 5 -15 9 -30 8 -30 -2
-33 5 -8 23 25 19 42 17 42 -5z m50 5 c0 -3 -4 -8 -10 -11 -5 -3 -10 -1 -10 4
0 6 5 11 10 11 6 0 10 -2 10 -4z m-236 -127 c-3 -5 -10 -7 -15 -3 -5 3 -7 10
-3 15 3 5 10 7 15 3 5 -3 7 -10 3 -15z m55 -63 c-33 -34 -49 -38 -49 -10 0 8
9 14 19 14 10 0 21 7 25 15 3 8 13 15 22 15 12 0 8 -9 -17 -34z m-59 -46 c0
-5 -5 -10 -11 -10 -5 0 -7 5 -4 10 3 6 8 10 11 10 2 0 4 -4 4 -10z m-50 -80
c0 -5 -5 -10 -11 -10 -5 0 -7 5 -4 10 3 6 8 10 11 10 2 0 4 -4 4 -10z m-100
-104 c0 -15 -23 -37 -42 -40 -7 -1 -19 -5 -25 -9 -25 -15 -13 11 19 41 31 31
48 33 48 8z"/>
<path d="M4720 4709 c0 -5 5 -7 10 -4 6 3 10 8 10 11 0 2 -4 4 -10 4 -5 0 -10
-5 -10 -11z"/>
<path d="M5280 4956 c0 -14 -6 -29 -14 -33 -8 -4 -41 -34 -74 -65 -33 -32 -63
-58 -67 -58 -4 0 -26 -16 -49 -36 -22 -19 -45 -39 -51 -43 -22 -18 -145 -155
-145 -162 0 -3 -10 -13 -22 -22 -13 -8 -51 -42 -84 -76 -56 -55 -141 -113
-186 -128 -10 -3 -18 -9 -18 -13 0 -5 -8 -6 -18 -3 -10 2 -27 -6 -41 -21 -14
-14 -29 -26 -35 -26 -14 0 -101 -79 -94 -85 9 -9 98 29 98 42 0 7 4 13 9 13 6
0 22 11 37 25 21 19 29 22 35 13 6 -10 11 -9 21 4 13 17 77 58 91 58 4 0 7 -3
7 -7 0 -10 -51 -64 -79 -83 -11 -8 -21 -18 -21 -23 0 -12 -56 -67 -69 -67 -5
0 -19 -13 -31 -30 -22 -31 -60 -41 -60 -15 0 10 -10 15 -30 15 -28 0 -35 8
-31 35 1 6 -8 -1 -20 -15 -18 -21 -20 -32 -14 -80 7 -59 33 -146 60 -195 l16
-30 -7 51 c-7 59 5 88 63 149 36 38 147 141 189 176 47 40 156 160 158 175 5
34 222 258 281 290 19 10 35 22 35 26 0 5 6 8 13 8 14 0 67 56 67 71 0 5 8 9
19 9 16 0 85 66 93 90 2 5 13 7 25 4 29 -8 19 -30 -23 -50 -19 -9 -34 -23 -34
-30 0 -8 -3 -14 -8 -14 -4 0 -16 -16 -27 -36 -11 -20 -35 -44 -57 -55 -23 -12
-40 -29 -44 -44 -4 -17 -13 -25 -28 -25 -18 0 -16 -3 12 -20 30 -19 45 -60 21
-60 -5 0 -7 -5 -4 -10 4 -6 11 -8 16 -5 5 4 9 -10 9 -29 0 -65 34 -48 171 84
85 82 129 120 139 120 18 0 10 -42 -12 -65 -13 -12 -32 -34 -43 -49 -28 -38
-37 -47 -76 -81 -39 -35 -69 -78 -69 -100 0 -8 -3 -14 -7 -13 -17 3 -56 -19
-45 -26 6 -3 13 -2 17 4 3 5 13 10 22 10 9 0 26 10 38 23 55 55 115 107 125
107 13 0 13 -8 -2 -25 -7 -8 -26 -31 -43 -51 -16 -20 -43 -48 -59 -62 -47 -45
-87 -109 -83 -136 5 -38 15 -42 23 -10 4 16 41 64 84 109 43 44 108 113 145
153 68 72 88 86 83 56 -2 -10 9 -23 29 -33 18 -9 33 -24 33 -34 0 -9 -3 -16
-7 -16 -25 4 -53 -3 -53 -12 0 -13 -209 -221 -263 -262 -25 -19 -37 -23 -40
-14 -3 7 -6 5 -6 -5 -1 -9 4 -20 9 -23 6 -3 10 -12 10 -18 0 -7 -4 -6 -11 3
-8 11 -9 9 -3 -10 9 -35 14 -38 31 -15 8 11 20 27 26 35 7 9 46 43 87 77 41
34 99 87 128 117 29 31 58 56 63 56 5 0 15 11 21 25 18 40 45 32 53 -15 7 -44
20 -58 29 -35 5 15 -31 93 -58 125 -7 8 -34 51 -61 95 -48 81 -63 98 -77 89
-4 -3 -8 4 -8 15 0 11 -11 37 -26 58 -28 42 -33 48 -98 117 -25 27 -46 53 -46
57 0 5 -13 15 -30 24 -29 15 -30 15 -30 -9z m136 -166 c0 -38 -23 -76 -78
-129 -18 -18 -61 -60 -95 -94 l-63 -62 0 38 c0 30 4 40 20 44 11 3 20 12 20
19 0 8 5 14 12 14 6 0 27 17 47 38 20 20 56 52 79 71 43 35 52 51 28 51 -19 0
-30 32 -14 42 26 16 43 4 44 -32z m-56 -7 c0 -9 -15 -31 -32 -48 -18 -18 -44
-44 -57 -58 -13 -15 -32 -27 -42 -27 -10 0 -19 -5 -19 -11 0 -5 -4 -7 -10 -4
-5 3 -10 2 -10 -3 0 -6 -7 -12 -15 -16 -9 -3 -15 0 -15 9 0 7 9 17 20 20 11 3
20 12 20 19 0 6 17 23 39 36 21 14 54 42 72 62 38 41 49 46 49 21z m140 -183
c0 -5 -5 -10 -11 -10 -5 0 -7 5 -4 10 3 6 8 10 11 10 2 0 4 -4 4 -10z m-40
-45 c-7 -9 -15 -13 -19 -10 -3 3 1 10 9 15 21 14 24 12 10 -5z m-1068 -490
c-3 -5 -7 -4 -9 2 -3 7 -10 10 -18 7 -10 -4 -12 0 -8 16 5 20 6 20 23 3 10
-10 15 -22 12 -28z m13 -64 c-10 -16 -25 -3 -25 22 0 20 1 20 16 5 9 -9 13
-21 9 -27z"/>
<path d="M5200 4940 c0 -5 5 -10 11 -10 5 0 7 5 4 10 -3 6 -8 10 -11 10 -2 0
-4 -4 -4 -10z"/>
<path d="M5047 4614 c-11 -14 -16 -28 -13 -31 7 -7 34 15 47 39 15 28 -13 22
-34 -8z"/>
<path d="M4966 4485 c-3 -8 -1 -15 4 -15 6 0 10 7 10 15 0 8 -2 15 -4 15 -2 0
-6 -7 -10 -15z"/>
<path d="M5510 4480 c-12 -8 -12 -10 3 -16 21 -8 35 2 21 16 -5 5 -15 6 -24 0z"/>
<path d="M4938 4363 c-28 -33 -30 -43 -9 -43 14 0 23 9 27 25 8 33 1 40 -18
18z"/>
<path d="M5724 4333 c1 -24 5 -46 9 -50 10 -9 7 48 -3 72 -7 15 -9 9 -6 -22z"/>
<path d="M4845 4347 c-4 -10 -5 -21 -1 -24 10 -10 18 4 13 24 -4 17 -4 17 -12
0z"/>
<path d="M5585 4310 c-21 -16 -45 -39 -55 -50 -9 -11 -20 -20 -24 -20 -12 0
-86 -53 -86 -61 0 -5 -20 -27 -45 -50 -25 -23 -45 -48 -45 -55 0 -8 -4 -14
-10 -14 -5 0 -10 5 -10 10 0 6 -6 10 -13 10 -17 0 -12 -115 8 -180 7 -25 12
-58 11 -74 -2 -44 19 -42 47 6 14 24 38 55 54 69 58 55 131 128 221 224 84 88
96 97 113 87 16 -10 19 -9 19 7 0 27 -26 47 -43 32 -8 -6 -16 -8 -19 -5 -9 8
-114 -91 -270 -253 -38 -40 -72 -73 -75 -73 -3 0 -12 -8 -19 -17 -12 -16 -13
-16 -14 -1 0 9 -4 18 -9 20 -4 2 -5 27 -1 56 7 58 12 64 204 235 43 39 76 76
76 87 0 12 8 20 23 22 13 2 18 6 11 10 -7 4 -28 -5 -49 -22z"/>
<path d="M4845 4289 c-20 -19 -25 -29 -15 -29 15 0 36 19 54 48 13 21 -8 11
-39 -19z"/>
<path d="M4915 4280 c-9 -30 -67 -80 -91 -80 -21 0 -36 -14 -134 -130 -30 -36
-65 -76 -77 -90 -13 -14 -23 -28 -23 -32 0 -3 -6 -13 -14 -20 -7 -8 -16 -23
-20 -34 -7 -22 -4 -19 226 199 68 65 129 122 135 125 15 10 28 82 15 82 -6 0
-14 -9 -17 -20z"/>
<path d="M4728 4235 c-50 -39 -78 -71 -78 -89 0 -12 23 -5 39 12 9 9 37 33 63
52 26 19 48 43 48 53 0 25 -9 22 -72 -28z"/>
<path d="M5758 4145 c2 -14 6 -25 8 -25 2 0 4 11 4 25 0 14 -4 25 -9 25 -4 0
-6 -11 -3 -25z"/>
<path d="M4430 4150 c0 -5 4 -10 9 -10 6 0 13 5 16 10 3 6 -1 10 -9 10 -9 0
-16 -4 -16 -10z"/>
<path d="M4902 4105 c0 -16 2 -22 5 -12 2 9 2 23 0 30 -3 6 -5 -1 -5 -18z"/>
<path d="M5760 4078 c0 -21 -4 -25 -20 -21 -15 4 -37 -12 -87 -63 -73 -72 -73
-104 -1 -35 24 22 48 41 54 41 7 0 14 7 18 15 13 34 25 13 19 -32 -6 -45 -18
-65 -74 -122 -20 -20 -108 -135 -132 -174 -21 -33 -19 -57 3 -34 33 34 92 105
120 145 31 43 60 55 60 25 0 -34 13 -1 18 44 2 27 9 51 16 55 13 8 25 154 14
171 -5 7 -8 1 -8 -15z"/>
<path d="M4812 4060 c-18 -29 -15 -36 8 -15 20 18 26 35 12 35 -4 0 -13 -9
-20 -20z"/>
<path d="M4881 3988 c-1 -10 -10 -23 -21 -30 -25 -16 -25 -24 0 -24 21 0 37
34 27 58 -4 8 -6 7 -6 -4z"/>
<path d="M4750 3909 c0 -5 5 -7 10 -4 6 3 10 8 10 11 0 2 -4 4 -10 4 -5 0 -10
-5 -10 -11z"/>
<path d="M4715 3879 c-4 -6 -5 -12 -2 -15 2 -3 7 2 10 11 7 17 1 20 -8 4z"/>
<path d="M4810 3852 c-14 -9 -26 -20 -28 -24 -2 -5 -9 -8 -16 -8 -14 0 -81
-69 -74 -76 11 -11 77 28 102 60 16 22 32 33 41 30 10 -4 15 0 15 15 0 25 -7
26 -40 3z"/>
<path d="M4410 3821 c0 -11 3 -22 8 -24 4 -3 7 6 7 19 0 13 -3 24 -7 24 -5 0
-8 -9 -8 -19z"/>
<path d="M5516 3774 c-9 -22 -8 -24 9 -18 8 4 15 12 15 20 0 19 -16 18 -24 -2z"/>
<path d="M4434 3754 c7 -27 56 -94 69 -94 13 0 7 15 -14 34 -13 11 -19 26 -17
40 5 23 -12 46 -33 46 -7 0 -9 -9 -5 -26z"/>
<path d="M5670 3752 c0 -7 -7 -12 -15 -12 -8 0 -15 -7 -15 -16 0 -9 -9 -27
-20 -41 -27 -35 -25 -54 3 -22 28 32 59 90 52 97 -3 3 -5 0 -5 -6z"/>
<path d="M5616 3585 c-27 -27 -35 -50 -14 -43 16 6 53 56 46 63 -3 4 -18 -6
-32 -20z"/>
<path d="M5564 3529 c-5 -9 -17 -20 -28 -26 -11 -6 -14 -13 -8 -17 14 -9 56
28 50 44 -4 12 -6 12 -14 -1z"/>
<path d="M8563 3858 c-18 -6 -33 -15 -33 -19 0 -5 -5 -9 -10 -9 -34 0 -99
-116 -119 -211 -12 -56 -10 -242 5 -469 4 -63 7 -185 7 -270 0 -233 -32 -322
-136 -376 -21 -12 -26 -20 -22 -35 5 -14 0 -26 -14 -38 -11 -10 -18 -21 -14
-25 3 -3 2 -6 -4 -6 -5 0 -10 -6 -10 -12 0 -20 -65 -108 -80 -108 -7 0 -20
-11 -29 -25 -9 -14 -20 -22 -25 -20 -4 3 -22 -7 -38 -22 -16 -15 -40 -37 -53
-49 -32 -28 -79 -83 -101 -116 -9 -15 -29 -31 -43 -34 -22 -6 -25 -11 -20 -34
5 -27 -13 -57 -27 -44 -3 4 -28 -11 -54 -33 -26 -22 -63 -49 -81 -62 -24 -17
-31 -28 -27 -44 4 -16 -6 -35 -40 -72 -50 -56 -56 -71 -22 -60 12 4 35 9 52
12 27 5 29 4 16 -11 -7 -9 -10 -16 -5 -16 11 1 44 25 44 33 0 3 34 38 75 78
48 46 75 81 75 94 0 21 32 43 85 60 19 6 19 7 2 20 -18 13 -7 32 12 21 16 -10
161 103 161 126 0 20 -31 5 -74 -37 -26 -25 -50 -45 -53 -45 -4 0 -15 -7 -25
-17 -11 -9 -18 -11 -18 -5 0 16 -43 15 -58 0 -6 -6 -14 -9 -18 -5 -10 9 6 27
24 27 10 0 32 13 50 30 18 16 37 30 41 30 4 0 34 25 67 55 32 31 75 70 95 88
21 18 37 37 38 44 1 6 17 26 37 45 21 18 58 55 85 83 26 27 51 46 56 42 4 -5
1 -12 -7 -17 -10 -7 -11 -10 -2 -10 6 0 12 -6 12 -14 0 -24 18 -28 45 -10 27
18 35 47 10 38 -8 -4 -15 -1 -15 5 0 6 -7 11 -15 11 -9 0 -12 6 -9 15 8 19 24
19 24 0 0 -19 6 -19 28 3 40 38 82 72 123 99 24 15 66 52 93 82 55 58 59 61
96 92 18 15 21 22 12 28 -16 10 5 30 38 36 12 2 57 40 100 85 42 44 82 80 88
80 16 0 132 132 132 150 0 9 26 40 57 70 32 30 56 56 55 58 -1 1 -2 13 -2 25
0 15 9 28 24 35 22 10 56 61 56 86 0 6 12 19 25 29 25 18 25 18 25 -8 0 -14
-5 -25 -11 -25 -5 0 -7 -5 -3 -11 11 -18 48 26 39 48 -4 10 -9 51 -10 92 -4
84 -17 108 -36 67 -9 -19 -10 -30 -2 -34 16 -11 15 -82 -2 -82 -7 0 -16 -9
-20 -19 -3 -11 -24 -36 -45 -58 -22 -21 -40 -42 -40 -46 0 -27 -58 -54 -67
-31 -5 12 -7 13 -14 3 -6 -10 -10 -9 -15 5 -7 18 9 38 114 140 40 40 53 66 32
66 -5 0 -50 -40 -99 -90 -50 -49 -95 -90 -100 -90 -14 0 -14 17 0 25 17 11 29
54 20 77 -6 18 -9 19 -14 5 -4 -10 -13 -14 -22 -11 -9 4 -15 1 -15 -9 0 -8 6
-18 13 -20 6 -3 2 -6 -10 -6 -12 -1 -27 -9 -32 -18 -5 -10 -33 -43 -63 -74
-59 -63 -73 -79 -108 -129 -14 -19 -42 -51 -62 -71 -21 -20 -38 -40 -38 -45 0
-6 -39 -50 -87 -100 -49 -49 -107 -110 -130 -136 -34 -37 -44 -44 -53 -33 -8
10 -8 19 -1 34 6 11 11 38 11 60 0 23 5 41 10 41 6 0 10 7 10 15 0 8 5 15 10
15 6 0 10 6 10 13 0 11 45 57 185 187 22 21 49 48 61 61 17 19 87 82 123 109
17 13 121 138 121 146 0 9 20 31 134 145 95 95 142 115 120 51 -5 -15 -19 -31
-32 -37 -12 -5 -22 -17 -21 -25 0 -10 2 -11 6 -2 8 19 23 14 23 -8 0 -24 13
-26 31 -4 8 9 21 13 35 10 14 -4 24 -1 28 9 6 18 -8 60 -24 70 -5 3 -7 11 -4
17 4 7 2 8 -4 4 -7 -4 -12 -3 -12 2 0 4 -9 18 -20 30 -23 24 -80 31 -80 10 0
-7 -25 -39 -55 -71 -30 -32 -55 -62 -55 -67 0 -5 -8 -11 -19 -15 -10 -3 -31
-17 -46 -31 -15 -14 -44 -36 -64 -48 -47 -31 -161 -139 -161 -153 0 -18 21
-27 30 -13 4 7 14 10 21 8 9 -3 3 -11 -17 -21 -17 -9 -47 -31 -66 -49 -85 -79
-241 -234 -258 -255 -22 -28 -50 -21 -50 12 0 55 32 110 108 188 87 89 87 89
123 137 27 36 194 208 239 247 42 35 101 105 113 132 7 14 16 29 22 33 5 4 0
8 -11 8 -13 0 -41 -21 -71 -54 -27 -29 -59 -57 -70 -60 -12 -4 -24 -17 -27
-30 -6 -26 -46 -42 -58 -23 -5 8 -9 6 -14 -6 -3 -9 -14 -17 -24 -17 -11 0 -24
-13 -32 -30 -7 -16 -15 -30 -19 -30 -11 0 -69 -57 -69 -68 0 -7 -3 -12 -8 -12
-8 0 -39 -29 -82 -75 -22 -25 -23 -28 -7 -40 15 -11 15 -14 -7 -34 -13 -12
-36 -47 -52 -77 -16 -30 -30 -50 -33 -43 -2 8 -6 8 -11 -2 -5 -7 -7 30 -6 83
3 105 4 106 108 210 26 26 51 56 57 67 6 11 25 28 41 38 17 9 30 23 30 30 0 7
16 23 35 35 19 13 35 28 35 33 0 6 15 21 33 35 17 14 60 52 95 86 l62 61 -107
11 c-128 14 -216 14 -260 0z m52 -28 c-3 -5 -13 -10 -21 -10 -8 0 -14 -9 -14
-20 0 -12 -9 -22 -24 -26 -14 -3 -27 -15 -30 -30 -4 -13 -15 -28 -26 -34 -23
-12 -24 -8 -8 37 11 30 28 39 61 34 12 -2 8 17 -5 22 -8 4 -4 8 10 12 12 4 22
11 22 16 0 5 9 9 21 9 11 0 17 -4 14 -10z m-22 -110 c-26 -27 -52 -50 -58 -50
-5 0 -19 -12 -31 -27 -12 -16 -25 -25 -28 -22 -11 11 4 36 29 49 13 7 29 26
36 43 8 18 26 35 46 44 19 7 37 21 41 31 6 16 7 16 10 0 2 -11 -16 -38 -45
-68z m167 55 c0 -7 -39 -45 -46 -45 -4 0 -12 -7 -19 -17 -7 -9 -15 -12 -18 -7
-8 14 45 73 66 74 9 0 17 -2 17 -5z m-140 -145 c-12 -16 -26 -30 -31 -30 -6 0
-22 -13 -36 -30 -25 -30 -43 -39 -43 -20 0 5 14 24 31 42 17 18 45 48 62 67
25 26 33 30 35 17 2 -9 -6 -29 -18 -46z m-163 -162 c-3 -8 -6 -5 -6 6 -1 11 2
17 5 13 3 -3 4 -12 1 -19z m436 -82 c-10 -14 -22 -26 -26 -26 -5 0 1 14 13 31
12 16 24 28 27 25 3 -2 -3 -16 -14 -30z m183 -97 c3 -5 1 -9 -5 -9 -5 0 -40
-29 -78 -65 -50 -48 -75 -65 -96 -65 -24 0 -26 3 -18 18 5 10 22 27 37 38 33
24 74 66 74 77 0 22 73 27 86 6z m50 -65 c-3 -9 -6 -22 -6 -29 0 -7 -16 -23
-36 -34 -20 -12 -38 -30 -41 -40 -3 -10 -22 -27 -44 -36 -21 -10 -39 -24 -39
-32 0 -7 -4 -13 -9 -13 -5 0 -20 -17 -32 -37 -28 -46 -38 -56 -66 -71 -12 -7
-30 -25 -39 -41 -10 -16 -27 -34 -40 -40 -12 -5 -30 -23 -40 -40 -10 -17 -24
-31 -31 -31 -20 0 -81 -59 -105 -101 -12 -21 -25 -39 -30 -39 -4 0 -8 -6 -8
-14 0 -7 -15 -19 -32 -27 -35 -13 -68 -42 -68 -58 0 -5 -15 -9 -34 -8 -22 1
-32 6 -29 15 3 6 12 12 20 12 28 0 83 41 83 61 0 10 5 19 10 19 13 0 50 37 50
50 0 15 -16 12 -30 -5 -7 -8 -18 -15 -26 -15 -7 0 -18 -8 -24 -17 -9 -15 -10
-13 -5 11 3 15 13 35 20 43 8 8 15 18 15 23 0 5 59 68 130 140 72 73 130 136
130 141 0 5 5 9 10 9 6 0 24 13 40 28 16 16 46 34 67 40 38 12 70 34 147 103
41 36 59 47 85 48 8 1 11 -5 7 -15z m-466 -534 c0 -5 -4 -10 -10 -10 -5 0 -10
5 -10 10 0 6 5 10 10 10 6 0 10 -4 10 -10z"/>
<path d="M9010 3825 c0 -19 39 -45 68 -45 30 0 32 2 18 15 -22 22 -86 45 -86
30z"/>
<path d="M8899 3758 c-24 -29 -49 -57 -56 -61 -16 -10 -17 -37 -2 -37 6 0 17
6 25 14 8 8 14 19 14 25 0 6 4 11 8 11 9 0 72 83 72 94 0 17 -21 1 -61 -46z"/>
<path d="M9120 3770 c0 -5 7 -10 16 -10 8 0 12 5 9 10 -3 6 -10 10 -16 10 -5
0 -9 -4 -9 -10z"/>
<path d="M9020 3665 c-10 -12 -10 -15 3 -15 8 0 17 7 21 15 3 8 2 15 -3 15 -5
0 -14 -7 -21 -15z"/>
<path d="M8960 3590 c0 -11 2 -20 4 -20 2 0 6 9 9 20 3 11 1 20 -4 20 -5 0 -9
-9 -9 -20z"/>
<path d="M9096 3484 c-19 -40 -15 -55 8 -31 9 8 21 17 28 19 9 3 8 10 -3 26
-15 21 -16 21 -33 -14z"/>
<path d="M8720 3319 c0 -5 5 -7 10 -4 6 3 10 8 10 11 0 2 -4 4 -10 4 -5 0 -10
-5 -10 -11z"/>
<path d="M9290 3266 c0 -8 -11 -17 -24 -20 -16 -4 -32 -22 -47 -52 -12 -25
-37 -61 -55 -80 -19 -18 -41 -51 -50 -74 -9 -22 -20 -37 -26 -34 -5 3 -14 -8
-21 -25 -6 -17 -15 -31 -19 -31 -4 0 -8 -6 -8 -14 0 -8 -9 -18 -20 -21 -11 -3
-20 -11 -20 -16 0 -5 9 -9 20 -9 11 0 20 3 20 8 0 4 14 15 30 24 21 12 30 25
30 43 0 14 5 25 10 25 6 0 10 11 10 25 0 17 6 25 18 25 20 1 51 40 61 78 5 17
15 28 29 30 18 3 20 8 16 32 -5 23 -2 29 17 36 13 4 27 7 32 6 4 -1 7 12 7 28
0 17 -2 30 -5 30 -3 0 -5 -6 -5 -14z"/>
<path d="M9241 3123 c-7 -8 -11 -16 -8 -19 2 -2 10 2 17 11 17 20 9 27 -9 8z"/>
<path d="M9200 3058 c0 -19 2 -20 10 -8 13 19 13 30 0 30 -5 0 -10 -10 -10
-22z"/>
<path d="M8560 2954 c0 -8 5 -12 10 -9 6 3 10 10 10 16 0 5 -4 9 -10 9 -5 0
-10 -7 -10 -16z"/>
<path d="M9120 2956 c0 -8 5 -18 10 -21 6 -3 10 1 10 9 0 8 -4 18 -10 21 -5 3
-10 -1 -10 -9z"/>
<path d="M9105 2910 c3 -5 8 -10 11 -10 2 0 4 5 4 10 0 6 -5 10 -11 10 -5 0
-7 -4 -4 -10z"/>
<path d="M8474 2876 c-3 -8 -4 -22 -2 -31 2 -12 7 -7 15 14 6 18 7 31 2 31 -5
0 -12 -6 -15 -14z"/>
<path d="M8980 2870 c0 -5 9 -10 20 -10 11 0 20 5 20 10 0 6 -9 10 -20 10 -11
0 -20 -4 -20 -10z"/>
<path d="M8938 2831 c-46 -26 -50 -66 -5 -42 26 14 51 48 39 54 -4 2 -19 -3
-34 -12z"/>
<path d="M9030 2800 c-11 -7 -12 -12 -4 -20 8 -8 13 -6 17 9 3 12 4 21 4 21
-1 0 -9 -5 -17 -10z"/>
<path d="M8863 2757 c-25 -11 -39 -37 -19 -37 14 0 52 37 45 44 -2 2 -14 -1
-26 -7z"/>
<path d="M8735 2600 c-3 -5 -1 -10 4 -10 6 0 11 5 11 10 0 6 -2 10 -4 10 -3 0
-8 -4 -11 -10z"/>
<path d="M8865 2600 c-3 -5 -1 -10 4 -10 6 0 11 5 11 10 0 6 -2 10 -4 10 -3 0
-8 -4 -11 -10z"/>
<path d="M8692 2568 c-19 -19 -14 -30 8 -18 11 6 20 15 20 20 0 14 -14 12 -28
-2z"/>
<path d="M8786 2528 c-17 -15 -27 -30 -24 -33 7 -8 38 5 38 16 0 5 7 9 15 9
15 0 21 26 8 33 -5 2 -21 -9 -37 -25z"/>
<path d="M8600 2483 c-19 -24 -31 -34 -94 -75 -17 -11 -127 -115 -262 -248
-23 -22 -46 -40 -53 -40 -6 0 -11 -9 -11 -19 0 -11 -6 -22 -12 -25 -7 -3 -3
-3 9 0 13 3 50 32 83 65 33 32 68 59 78 59 10 0 36 19 59 43 22 23 64 62 94
87 91 77 149 138 149 160 0 28 -14 25 -40 -7z"/>
<path d="M7443 2463 c-48 -4 -52 -6 -55 -31 -2 -17 -10 -28 -22 -30 -23 -5
-65 -51 -66 -73 0 -9 -16 -29 -35 -43 -19 -15 -35 -33 -35 -40 0 -15 -68 -71
-77 -63 -10 11 22 78 44 92 13 9 23 22 23 29 0 8 6 17 13 19 7 4 3 8 -10 12
-13 4 -23 11 -23 15 0 5 -8 10 -17 12 -21 5 -63 -11 -63 -24 0 -4 -27 -8 -60
-8 -45 0 -60 -4 -60 -14 0 -8 -20 -27 -45 -43 -25 -15 -45 -33 -45 -38 0 -6
-8 -18 -17 -26 -10 -9 -25 -29 -34 -46 -9 -16 -51 -56 -93 -87 -42 -32 -84
-71 -93 -87 -10 -16 -21 -29 -25 -29 -7 0 -168 -158 -168 -166 0 -2 -18 -20
-40 -40 -22 -20 -40 -42 -40 -49 0 -7 -18 -29 -40 -49 -22 -20 -40 -44 -40
-53 0 -15 1 -15 13 -1 6 8 21 21 33 29 31 21 173 149 208 188 50 55 158 170
197 210 114 114 272 261 281 261 18 0 3 -45 -16 -48 -21 -4 -65 -50 -66 -68 0
-6 -10 -18 -21 -26 -12 -8 -20 -21 -17 -29 3 -9 35 17 97 81 50 52 101 105
113 117 16 17 24 19 30 10 19 -29 9 -43 -173 -247 -37 -42 -79 -82 -93 -89
-39 -21 -35 -44 4 -25 17 9 30 20 30 25 0 5 7 9 16 9 10 0 39 23 65 50 26 28
53 50 58 50 28 0 4 -33 -71 -101 -45 -41 -93 -86 -107 -100 -14 -14 -61 -56
-103 -94 -43 -37 -78 -72 -78 -79 0 -6 -64 -73 -141 -148 -78 -76 -135 -138
-128 -138 8 0 32 17 54 38 22 20 58 51 80 67 22 16 83 72 136 125 141 141 280
270 309 288 27 18 129 118 169 167 76 92 156 180 235 258 50 48 83 86 75 85
-7 -1 -37 -3 -66 -5z m-288 -300 c7 -19 -9 -38 -24 -29 -17 11 -14 57 3 50 8
-3 17 -13 21 -21z"/>
<path d="M7553 2463 c9 -2 25 -2 35 0 9 3 1 5 -18 5 -19 0 -27 -2 -17 -5z"/>
<path d="M8007 2458 c22 -11 22 -12 -20 -49 -23 -22 -54 -47 -69 -56 -16 -10
-28 -22 -28 -27 0 -6 -17 -26 -38 -46 -22 -19 -41 -41 -43 -48 -3 -8 -20 -17
-39 -21 -26 -5 -36 -13 -38 -29 -4 -25 -37 -52 -65 -52 -9 0 -20 -7 -23 -15
-3 -8 -14 -17 -25 -20 -10 -4 -18 -9 -18 -13 4 -27 -1 -34 -16 -22 -13 10 -19
10 -33 -2 -9 -8 -28 -24 -41 -34 -13 -10 -47 -43 -75 -73 -96 -103 -141 -146
-179 -171 -20 -14 -37 -31 -37 -37 0 -7 -4 -13 -10 -13 -5 0 -10 -4 -10 -9 0
-14 85 36 123 72 18 18 42 39 53 48 12 9 27 25 35 35 16 22 84 74 96 74 4 0
17 14 28 30 12 19 29 30 43 30 20 0 19 -4 -20 -44 -24 -24 -57 -59 -73 -77
-59 -65 -239 -220 -283 -244 -26 -13 -132 -117 -132 -129 0 -11 31 7 63 38 56
53 161 126 182 126 10 0 45 24 100 68 6 4 37 28 70 52 33 25 76 61 95 81 140
145 180 189 180 195 0 3 13 23 28 43 15 20 34 49 42 66 8 16 26 41 40 56 14
14 32 35 40 47 8 12 21 24 30 27 21 7 140 120 140 133 0 6 8 13 18 15 9 3 -12
5 -48 5 -53 1 -61 -1 -43 -10z"/>
<path d="M7180 2420 c0 -5 5 -10 10 -10 6 0 10 5 10 10 0 6 -4 10 -10 10 -5 0
-10 -4 -10 -10z"/>
<path d="M7280 2397 c0 -9 -6 -17 -14 -17 -14 0 -42 -28 -34 -35 2 -2 13 -2
25 1 20 6 41 50 28 62 -3 3 -5 -2 -5 -11z"/>
<path d="M7494 2388 c-12 -5 -37 -30 -55 -54 -18 -24 -36 -44 -41 -44 -4 0 -8
-7 -8 -16 0 -16 37 9 108 75 45 42 44 62 -4 39z"/>
<path d="M7668 2357 c-24 -24 -67 -70 -96 -102 -47 -54 -52 -57 -49 -33 3 27
11 37 82 108 19 19 35 41 35 49 0 17 -88 -58 -89 -76 -1 -7 -4 -13 -9 -13 -4
0 -61 -52 -126 -115 -76 -74 -137 -124 -168 -138 -26 -12 -48 -28 -48 -35 0
-7 -11 -17 -24 -22 -14 -5 -49 -33 -79 -62 -31 -29 -78 -75 -107 -102 -28 -27
-49 -50 -47 -52 8 -8 65 27 98 59 29 28 58 47 79 51 3 1 11 5 18 10 7 4 16 6
18 3 10 -9 -39 -72 -87 -112 -26 -22 -48 -45 -48 -51 -1 -6 -17 -29 -36 -50
-19 -21 -37 -46 -41 -56 -3 -10 -12 -18 -20 -18 -8 0 -14 -5 -14 -12 0 -6 -9
-3 -20 7 -11 10 -20 14 -20 9 0 -12 -49 -72 -117 -143 -29 -30 -53 -58 -53
-63 0 -4 -13 -14 -30 -23 -36 -19 -39 -35 -6 -35 22 0 47 23 184 168 17 19 32
42 32 50 0 11 3 12 13 4 19 -16 41 1 181 137 152 149 206 204 206 214 0 4 4 7
9 7 12 0 71 59 71 71 0 5 4 9 9 9 10 0 179 171 228 230 16 19 39 51 53 71 13
20 36 45 52 55 27 18 38 44 18 44 -5 0 -29 -19 -52 -43z"/>
<path d="M7802 2380 c-7 -11 -17 -20 -23 -20 -12 0 -119 -110 -119 -122 0 -4
7 -5 15 -2 8 4 15 10 15 14 0 11 13 24 89 85 33 28 61 53 61 58 0 15 -26 6
-38 -13z"/>
<path d="M8647 2379 c-3 -11 -15 -23 -26 -26 -19 -5 -30 -23 -15 -23 23 0 74
35 74 51 0 26 -26 24 -33 -2z"/>
<path d="M6888 2343 c6 -2 18 -2 25 0 6 3 1 5 -13 5 -14 0 -19 -2 -12 -5z"/>
<path d="M6876 2322 c-2 -4 4 -8 14 -8 10 0 16 4 14 8 -3 4 -9 8 -14 8 -5 0
-11 -4 -14 -8z"/>
<path d="M8535 2280 c-3 -5 1 -10 9 -10 9 0 16 5 16 10 0 6 -4 10 -9 10 -6 0
-13 -4 -16 -10z"/>
<path d="M6830 2208 c-10 -18 -22 -38 -27 -43 -32 -40 -35 -45 -25 -45 14 0
62 44 62 57 0 6 7 16 15 23 8 7 15 19 15 26 0 24 -20 15 -40 -18z"/>
<path d="M6705 2217 c-4 -10 -5 -21 -1 -24 10 -10 18 4 13 24 -4 17 -4 17 -12
0z"/>
<path d="M8465 2200 c-3 -5 -1 -10 4 -10 6 0 11 5 11 10 0 6 -2 10 -4 10 -3 0
-8 -4 -11 -10z"/>
<path d="M6280 2158 c0 -12 3 -18 7 -14 11 10 12 36 2 36 -5 0 -9 -10 -9 -22z"/>
<path d="M8430 2165 c-8 -9 -8 -15 -2 -15 12 0 26 19 19 26 -2 2 -10 -2 -17
-11z"/>
<path d="M6310 2110 c0 -5 5 -10 10 -10 6 0 10 5 10 10 0 6 -4 10 -10 10 -5 0
-10 -4 -10 -10z"/>
<path d="M8320 2104 c0 -11 6 -14 23 -8 47 14 53 23 15 24 -28 0 -38 -4 -38
-16z"/>
<path d="M6636 2084 c-9 -24 -7 -27 9 -10 17 17 19 26 6 26 -5 0 -12 -7 -15
-16z"/>
<path d="M8140 2052 c0 -4 5 -13 12 -20 9 -9 8 -12 -6 -12 -17 0 -66 -46 -66
-61 0 -4 -10 -9 -22 -12 -23 -6 -138 -106 -138 -120 0 -14 15 -7 50 23 21 18
42 28 52 24 9 -2 20 1 25 9 4 8 27 26 51 42 23 15 42 31 42 35 0 4 11 18 24
31 23 24 24 25 6 47 -19 23 -30 28 -30 14z"/>
<path d="M8251 2041 c-17 -11 -6 -31 18 -31 21 0 44 23 34 33 -9 10 -35 8 -52
-2z"/>
<path d="M6240 2010 c0 -5 5 -10 10 -10 6 0 10 5 10 10 0 6 -4 10 -10 10 -5 0
-10 -4 -10 -10z"/>
<path d="M6808 1993 c7 -3 16 -2 19 1 4 3 -2 6 -13 5 -11 0 -14 -3 -6 -6z"/>
<path d="M6212 1940 c0 -19 2 -27 5 -17 2 9 2 25 0 35 -3 9 -5 1 -5 -18z"/>
<path d="M6767 1945 c-10 -14 -15 -30 -12 -35 9 -15 25 -2 25 21 0 10 5 19 10
19 6 0 10 5 10 10 0 17 -14 10 -33 -15z"/>
<path d="M6232 1940 c0 -14 2 -19 5 -12 2 6 2 18 0 25 -3 6 -5 1 -5 -13z"/>
<path d="M6700 1840 c-8 -5 -12 -12 -9 -15 4 -3 12 1 19 10 14 17 11 19 -10 5z"/>
<path d="M8045 1830 c-4 -6 -11 -8 -16 -5 -5 4 -9 2 -9 -4 0 -5 9 -9 20 -8 11
1 20 7 20 14 0 16 -6 17 -15 3z"/>
<path d="M7876 1791 c-4 -7 -5 -15 -2 -18 9 -9 19 4 14 18 -4 11 -6 11 -12 0z"/>
<path d="M7980 1780 c0 -5 4 -10 9 -10 6 0 13 5 16 10 3 6 -1 10 -9 10 -9 0
-16 -4 -16 -10z"/>
<path d="M7880 1750 c0 -5 9 -14 20 -20 16 -8 20 -8 20 4 0 7 -7 17 -16 20
-21 8 -24 8 -24 -4z"/>
<path d="M7840 1710 c0 -5 7 -10 16 -10 8 0 12 5 9 10 -3 6 -10 10 -16 10 -5
0 -9 -4 -9 -10z"/>
<path d="M6940 1680 c-8 -5 -12 -11 -9 -14 2 -3 11 -1 19 4 8 5 12 11 9 14 -2
3 -11 1 -19 -4z"/>
<path d="M7108 1669 c-24 -14 -23 -28 2 -22 11 3 20 12 20 19 0 16 0 16 -22 3z"/>
<path d="M7286 1628 c-23 -13 -61 -44 -99 -80 -16 -16 -33 -28 -38 -28 -5 0
-9 -6 -9 -14 0 -8 -6 -16 -12 -19 -7 -2 -10 -7 -6 -11 8 -10 71 30 131 84 66
59 86 99 33 68z"/>
<path d="M7520 1630 c0 -6 -12 -16 -27 -23 -16 -6 -46 -30 -68 -53 -22 -23
-47 -44 -55 -47 -8 -3 0 -6 17 -6 27 -1 37 6 59 39 15 22 31 40 36 40 10 0 58
45 58 55 0 3 -4 5 -10 5 -5 0 -10 -5 -10 -10z"/>
<path d="M6700 1527 c-8 -7 -24 -22 -34 -35 -15 -17 -16 -22 -4 -22 8 0 24 14
37 31 25 33 25 45 1 26z"/>
<path d="M6385 1519 c-4 -6 -5 -12 -2 -15 2 -3 7 2 10 11 7 17 1 20 -8 4z"/>
<path d="M7375 1480 c-3 -5 -2 -10 4 -10 5 0 13 5 16 10 3 6 2 10 -4 10 -5 0
-13 -4 -16 -10z"/>
<path d="M6977 1406 c-57 -56 -65 -66 -48 -66 17 0 114 97 110 109 -3 7 -29
-12 -62 -43z"/>
<path d="M6415 1430 c3 -5 8 -10 11 -10 2 0 4 5 4 10 0 6 -5 10 -11 10 -5 0
-7 -4 -4 -10z"/>
<path d="M6590 1430 c0 -5 4 -10 9 -10 6 0 13 5 16 10 3 6 -1 10 -9 10 -9 0
-16 -4 -16 -10z"/>
</g>
</svg>
